<?xml version="1.0" encoding="UTF-8"?>
<svg version="1.1" xmlns="http://www.w3.org/2000/svg" width="750" height="552">
<path d="M0 0 C247.5 0 495 0 750 0 C750 182.16 750 364.32 750 552 C502.5 552 255 552 0 552 C0 369.84 0 187.68 0 0 Z " fill="#D9D9D9" transform="translate(0,0)"/>
<path d="M0 0 C2.48958703 0.37842795 3.73559366 0.72878564 5.51708984 2.55615234 C6.23179443 3.560896 6.23179443 3.560896 6.9609375 4.5859375 C7.5075 5.34197266 8.0540625 6.09800781 8.6171875 6.87695312 C9.48730469 8.11348633 9.48730469 8.11348633 10.375 9.375 C11.6325311 11.12259836 12.89035155 12.86998854 14.1484375 14.6171875 C14.7887793 15.51405273 15.42912109 16.41091797 16.08886719 17.33496094 C19.01844571 21.42020355 22.00995941 25.45892508 25 29.5 C26.16701144 31.08307923 27.333677 32.66641349 28.5 34.25 C29.0775 35.03375 29.655 35.8175 30.25 36.625 C46 58 61.75 79.375 77.5 100.75 C78.07758057 101.53383057 78.65516113 102.31766113 79.25024414 103.12524414 C80.41620806 104.70768185 81.58206104 106.29020131 82.74780273 107.87280273 C85.67431443 111.84551887 88.60277534 115.81676994 91.53515625 119.78515625 C97.27423482 127.55599874 102.98429619 135.34488696 108.625 143.1875 C113.16353779 149.49744119 117.78340864 155.73800305 122.46557617 161.94189453 C130.1585894 172.16106677 137.5708743 182.58827871 145 193 C150.52382061 187.04604582 155.85151715 181.05261454 160.87109375 174.6640625 C163.35441026 171.55649946 165.91977973 168.52711829 168.5 165.5 C172.3254177 161.00523149 176.0621827 156.45661183 179.73046875 151.83203125 C184.47281116 145.91430621 189.32561957 140.08591133 194.15332031 134.23779297 C197.1050718 130.66088205 200.05238133 127.08031669 203 123.5 C204.16664383 122.08331453 205.33331053 120.66664789 206.5 119.25 C207.0775 118.54875 207.655 117.8475 208.25 117.125 C210 115 211.75 112.875 213.5 110.75 C214.0777417 110.04842773 214.6554834 109.34685547 215.25073242 108.62402344 C216.41484354 107.21051797 217.5790684 105.79710616 218.7434082 104.38378906 C221.70012504 100.79452429 224.65471204 97.20354178 227.60546875 93.609375 C229.95145444 90.7518562 232.30333067 87.89936433 234.66015625 85.05078125 C236.85510439 82.39741467 239.02710501 79.72765947 241.18359375 77.04296875 C242.16378633 75.84092058 243.14424018 74.6390854 244.125 73.4375 C244.56223389 72.88288086 244.99946777 72.32826172 245.44995117 71.75683594 C246.6953125 70.24609375 246.6953125 70.24609375 249 68 C253 68 253 68 255.04296875 69.80078125 C256.10451172 71.04408203 256.10451172 71.04408203 257.1875 72.3125 C257.97511719 73.22773438 258.76273437 74.14296875 259.57421875 75.0859375 C263.41453069 79.69925908 267.22849166 84.33019896 271 89 C272.39439257 90.70950953 273.7902506 92.41782467 275.1875 94.125 C275.93 95.0325 276.6725 95.94 277.4375 96.875 C282.33569825 102.85299275 287.25463674 108.81397568 292.16943359 114.77832031 C294.53405861 117.64816395 296.89796257 120.51860088 299.26171875 123.38916016 C300.42173806 124.79780158 301.5818946 126.20633002 302.7421875 127.61474609 C305.69932261 131.2044898 308.65430872 134.79596696 311.60546875 138.390625 C316.987271 144.9421619 322.38108818 151.47950768 327.875 157.9375 C331.5741605 162.28635274 335.18245094 166.69500943 338.73046875 171.16796875 C343.47281116 177.08569379 348.32561957 182.91408867 353.15332031 188.76220703 C356.1050718 192.33911795 359.05238133 195.91968331 362 199.5 C363.16664383 200.91668547 364.33331053 202.33335211 365.5 203.75 C372.5 212.25 379.5 220.75 386.5 229.25 C387.07854736 229.95237793 387.65709473 230.65475586 388.25317383 231.37841797 C389.40983268 232.78322096 390.56592797 234.18848817 391.72143555 235.59423828 C394.78655863 239.32158733 397.86347505 243.03838935 400.95703125 246.7421875 C401.60220703 247.51755859 402.24738281 248.29292969 402.91210938 249.09179688 C404.15333497 250.58305352 405.39798345 252.07146966 406.64648438 253.55664062 C407.20271484 254.22630859 407.75894531 254.89597656 408.33203125 255.5859375 C408.82421143 256.1742334 409.3163916 256.7625293 409.82348633 257.36865234 C411 259 411 259 412 262 C237.76 262 63.52 262 -116 262 C-116 157 -116 157 -106 144 C-103.85774013 141.07224484 -101.72932262 138.14171841 -99.625 135.1875 C-95.49698853 129.43295065 -91.32526213 123.71799655 -87.0625 118.0625 C-77.47504616 105.33796903 -68.05717057 92.49278835 -58.75415039 79.55908203 C-54.74507859 73.99868171 -50.64920011 68.50912016 -46.51904297 63.03833008 C-42.77967771 58.07234992 -39.12709355 53.04842752 -35.5 48 C-30.94093891 41.65651767 -26.31283054 35.37297028 -21.60961914 29.13574219 C-15.82058345 21.45275681 -10.12964551 13.6976239 -4.43530273 5.94433594 C-2.96694013 3.95521537 -1.4858939 1.97604878 0 0 Z " fill="#BCBCBC" transform="translate(116,290)"/>
<path d="M0 0 C4.62946595 0.00020662 9.25892593 -0.00533934 13.88838899 -0.01005757 C22.93094367 -0.01830922 31.97349183 -0.02110992 41.01604996 -0.02166995 C48.37937276 -0.02214779 55.74269344 -0.02421579 63.10601556 -0.02737057 C84.05848141 -0.03616264 105.01094217 -0.04079229 125.96340988 -0.0400401 C127.65225621 -0.03998016 127.65225621 -0.03998016 129.37522066 -0.03991902 C130.50251945 -0.03987814 131.62981825 -0.03983726 132.79127761 -0.03979514 C151.03553144 -0.03938921 169.27976457 -0.04894909 187.52401242 -0.06305739 C206.33166611 -0.07748465 225.13930974 -0.08432408 243.94696909 -0.08346361 C254.47595708 -0.08313379 265.00492339 -0.08578522 275.53390634 -0.09664166 C284.50219434 -0.10583081 293.47045083 -0.10785399 302.43874154 -0.10113224 C306.99782959 -0.09790868 311.5568575 -0.09765544 316.1159395 -0.10648549 C333.41830218 -0.13778304 350.666874 0.02508041 367.94374788 1.03556621 C368.98660913 1.09386307 368.98660913 1.09386307 370.05053828 1.15333764 C372.00833552 1.26602418 373.96527837 1.39326742 375.92214429 1.52111137 C377.02202639 1.59288068 378.12190848 1.66464998 379.25512034 1.73859411 C382.46579683 2.14538372 382.46579683 2.14538372 389.46579683 4.14538372 C389.46579683 10.74538372 389.46579683 17.34538372 389.46579683 24.14538372 C363.82704309 31.47074193 333.21003638 28.29667469 306.59913552 28.27610838 C302.17232801 28.27380573 297.7455241 28.2773576 293.31871736 28.28008831 C284.68774013 28.28449389 276.05677168 28.283593 267.42579412 28.28067566 C260.40010074 28.27840092 253.37440979 28.278118 246.34871614 28.27919948 C245.34203652 28.27935271 244.33535691 28.27950595 243.29817185 28.27966382 C241.25199628 28.27998361 239.20582071 28.28030782 237.15964514 28.28063641 C218.05195293 28.28347594 198.94426555 28.28022827 179.83657414 28.27483605 C163.50415767 28.27036941 147.17174832 28.27114577 130.83933198 28.27575481 C111.79175342 28.28112769 92.74417906 28.28320139 73.69659984 28.28014255 C71.6586924 28.27982406 69.62078496 28.27950968 67.58287752 28.27919948 C66.58064864 28.27904521 65.57841977 28.27889093 64.54582033 28.27873198 C57.5429841 28.27787494 50.54015058 28.27931202 43.53731477 28.28167903 C34.98259062 28.28450753 26.42787562 28.28367532 17.87315249 28.27839829 C13.52326164 28.27580191 9.17338595 28.27468562 4.82349527 28.27804744 C-55.80603092 28.32083081 -55.80603092 28.32083081 -72.53420317 25.14538372 C-74.89988539 22.7797015 -74.78992022 22.29306146 -74.79982817 19.08288372 C-74.8024063 18.28624309 -74.80498442 17.48960247 -74.80764067 16.66882122 C-74.7999063 15.83608684 -74.79217192 15.00335247 -74.78420317 14.14538372 C-74.79193755 13.31264934 -74.79967192 12.47991497 -74.80764067 11.62194622 C-74.80506255 10.82530559 -74.80248442 10.02866497 -74.79982817 9.20788372 C-74.79757231 8.47698528 -74.79531645 7.74608684 -74.79299223 6.99303997 C-74.53420317 5.14538372 -74.53420317 5.14538372 -72.53420317 3.14538372 C-49.03013179 -1.66226725 -23.86682669 -0.00666503 0 0 Z " fill="#BCBCBC" transform="translate(127.53420317173004,175.85461628437042)"/>
<path d="M0 0 C2.18884395 -0.00271814 4.37768698 -0.00628364 6.56652832 -0.01062012 C12.44868681 -0.0196481 18.33077423 -0.01624007 24.21293378 -0.00986195 C30.40594993 -0.00475242 36.59896051 -0.00950697 42.79197693 -0.01263428 C53.18538491 -0.01625934 63.57876434 -0.01151303 73.97216797 -0.00195312 C85.94304712 0.00893144 97.91385813 0.00539988 109.88473564 -0.00560594 C120.21316944 -0.01471715 130.54158286 -0.0159455 140.87001938 -0.0107286 C147.01671109 -0.00763027 153.16337091 -0.00714023 159.3100605 -0.01380157 C165.091141 -0.01963062 170.87213464 -0.01547774 176.65320587 -0.00401306 C178.75930322 -0.00139606 180.86540804 -0.00208004 182.9715023 -0.00653839 C193.0588435 -0.02590354 203.05131435 0.14388304 213.09507751 1.14996338 C213.88987882 1.22743482 214.68468013 1.30490627 215.50356632 1.38472533 C219.15548696 1.79753312 221.26793133 2.18627063 224.37670898 4.25878906 C224.68001237 7.0182552 224.79505757 9.50374591 224.75170898 12.25878906 C224.76331055 12.99613281 224.77491211 13.73347656 224.78686523 14.49316406 C224.77514648 16.63378906 224.77514648 16.63378906 224.37670898 20.25878906 C219.25062142 23.67618077 213.37441833 23.49160658 207.3518219 23.8132019 C206.1786118 23.87639297 206.1786118 23.87639297 204.98170048 23.94086063 C195.24879612 24.41938481 185.51715848 24.39890075 175.77490234 24.38818359 C173.67177806 24.38954231 171.568654 24.39132487 169.4655304 24.39349365 C163.80860446 24.39801176 158.15169698 24.39630187 152.49477077 24.39311457 C146.54237621 24.390562 140.58998312 24.39293648 134.6375885 24.39450073 C124.64754964 24.39631389 114.6575182 24.39393845 104.66748047 24.38916016 C93.15673062 24.3837177 81.6459985 24.38548354 70.13524908 24.39098656 C60.20858641 24.3955403 50.28192905 24.39615725 40.35526568 24.39354789 C34.44559569 24.39199772 28.53593401 24.39175655 22.62626457 24.39508438 C17.06849154 24.39799615 11.51074112 24.39592732 5.9529705 24.39019012 C3.92666155 24.38888019 1.90035066 24.38922616 -0.12595749 24.39145279 C-9.47011321 24.40076553 -18.79038084 24.34603114 -28.12156677 23.8132019 C-28.8040552 23.77446618 -29.48654364 23.73573046 -30.18971354 23.69582093 C-43.01708571 22.86499437 -43.01708571 22.86499437 -45.62329102 20.25878906 C-45.77647093 17.59876095 -45.85488976 14.98257027 -45.87329102 12.32128906 C-45.89391602 11.57943359 -45.91454102 10.83757812 -45.93579102 10.07324219 C-45.95141602 7.91894531 -45.95141602 7.91894531 -45.62329102 4.25878906 C-41.80528009 1.71344845 -38.30257787 1.55970412 -33.8497467 1.14996338 C-32.96198707 1.06570862 -32.07422743 0.98145386 -31.15956599 0.89464593 C-20.77721035 -0.01053564 -10.4140176 -0.0220686 0 0 Z " fill="#BCBCBC" transform="translate(103.623291015625,244.7412109375)"/>
</svg>
