<?xml version="1.0" encoding="UTF-8"?>
<svg version="1.1" xmlns="http://www.w3.org/2000/svg" width="750" height="552">
<path d="M0 0 C247.5 0 495 0 750 0 C750 182.16 750 364.32 750 552 C502.5 552 255 552 0 552 C0 369.84 0 187.68 0 0 Z " fill="#D9D9D9" transform="translate(0,0)"/>
<path d="M0 0 C94.71 0 189.42 0 287 0 C287 76.56 287 153.12 287 232 C192.29 232 97.58 232 0 232 C0 155.44 0 78.88 0 0 Z " fill="#BCBCBC" transform="translate(419,157)"/>
<path d="M0 0 C90.75 0 181.5 0 275 0 C275 70.95 275 141.9 275 215 C274.34 213.68 273.68 212.36 273 211 C272.34 211 271.68 211 271 211 C270.16151196 209.54462432 269.32936066 208.08559627 268.5 206.625 C268.0359375 205.81289063 267.571875 205.00078125 267.09375 204.1640625 C266 202 266 202 266 200 C265.34 200 264.68 200 264 200 C263.18501438 198.3970947 262.37310073 196.79262722 261.5625 195.1875 C260.88380859 193.84751953 260.88380859 193.84751953 260.19140625 192.48046875 C259 190 259 190 258 187 C257.34 187 256.68 187 256 187 C254.9923048 185.2335343 253.99408286 183.46166177 253 181.6875 C252.443125 180.70136719 251.88625 179.71523438 251.3125 178.69921875 C250 176 250 176 250 173 C249.34 173 248.68 173 248 173 C247.67386719 172.31292969 247.34773437 171.62585938 247.01171875 170.91796875 C246.57472656 170.01691406 246.13773438 169.11585938 245.6875 168.1875 C245.25824219 167.29417969 244.82898438 166.40085937 244.38671875 165.48046875 C243.16103379 163.02389436 243.16103379 163.02389436 241.48828125 161.48828125 C238.94113836 158.94113836 237.78287872 155.60927724 236.28125 152.375 C235.15016466 150.00686638 235.15016466 150.00686638 233.5 148.5 C230.94697016 145.94697016 229.78643349 142.61693367 228.28125 139.375 C227.04966986 137.09207096 225.82981191 135.79087974 224 134 C222.91296473 132.01775922 221.99769576 129.99493068 221.0625 127.9375 C220.09952465 125.95811112 220.09952465 125.95811112 218.53515625 124.5703125 C216.56217524 122.55214872 215.62458204 120.42778458 214.4375 117.875 C212.95747651 114.23783085 212.95747651 114.23783085 210 112 C208.39203451 108.74823692 206.97780398 105.42961429 205.53515625 102.1015625 C204.17358548 99.3507045 203.180919 98.02177086 201 96 C199.83203125 94.02734375 199.83203125 94.02734375 198.8125 91.9375 C198.46832031 91.24527344 198.12414062 90.55304688 197.76953125 89.83984375 C197 88 197 88 197 86 C196.01 85.67 195.02 85.34 194 85 C193.67 84.34 193.34 83.68 193 83 C192.01 83 191.02 83 190 83 C186.30218744 86.69781256 184.32348789 91.20803244 182.1484375 95.890625 C181 98 181 98 179 99 C178.06606559 100.655611 177.19897217 102.34950522 176.375 104.0625 C175.92898438 104.98160156 175.48296875 105.90070313 175.0234375 106.84765625 C174.68570313 107.55792969 174.34796875 108.26820313 174 109 C173.34 109 172.68 109 172 109 C171.88785156 109.55171875 171.77570313 110.1034375 171.66015625 110.671875 C170.88639227 113.40065211 169.73182306 115.72772943 168.4375 118.25 C167.98246094 119.14203125 167.52742187 120.0340625 167.05859375 120.953125 C166.70925781 121.62859375 166.35992188 122.3040625 166 123 C165.34 123 164.68 123 164 123 C163.62875 123.99 163.62875 123.99 163.25 125 C161.68182955 128.76360907 159.85494954 132.3711424 158 136 C157.34 136 156.68 136 156 136 C155.731875 136.70125 155.46375 137.4025 155.1875 138.125 C153.9318551 141.1649824 152.49764877 144.0727774 151 147 C150.34 147 149.68 147 149 147 C148.62875 147.99 148.62875 147.99 148.25 149 C146.68182955 152.76360907 144.85494954 156.3711424 143 160 C142.34 160 141.68 160 141 160 C140.566875 161.423125 140.566875 161.423125 140.125 162.875 C139 166 139 166 137 168 C136.731875 167.401875 136.46375 166.80375 136.1875 166.1875 C135.14036357 163.99542839 135.14036357 163.99542839 133.5625 162.6171875 C131.84056101 160.83498064 130.89639206 159.15927109 129.8125 156.9375 C129.46832031 156.24527344 129.12414062 155.55304688 128.76953125 154.83984375 C128 153 128 153 128 151 C127.34 151 126.68 151 126 151 C124.99491199 149.21118264 123.99607264 147.41885304 123 145.625 C122.443125 144.62726563 121.88625 143.62953125 121.3125 142.6015625 C120 140 120 140 120 138 C119.34 138 118.68 138 118 138 C117.60167969 137.16855469 117.20335937 136.33710938 116.79296875 135.48046875 C116.26316406 134.39378906 115.73335937 133.30710937 115.1875 132.1875 C114.66542969 131.10855469 114.14335938 130.02960938 113.60546875 128.91796875 C112.20463858 126.37193435 111.05533355 124.95480093 109 123 C107.83203125 121.02734375 107.83203125 121.02734375 106.8125 118.9375 C106.46832031 118.24527344 106.12414062 117.55304688 105.76953125 116.83984375 C105 115 105 115 105 113 C104.34 113 103.68 113 103 113 C101.9923048 111.2335343 100.99408286 109.46166177 100 107.6875 C99.443125 106.70136719 98.88625 105.71523438 98.3125 104.69921875 C97 102 97 102 97 99 C96.34 99 95.68 99 95 99 C94.60167969 98.16855469 94.20335937 97.33710938 93.79296875 96.48046875 C93.26316406 95.39378906 92.73335937 94.30710937 92.1875 93.1875 C91.66542969 92.10855469 91.14335938 91.02960938 90.60546875 89.91796875 C89.20463858 87.37193435 88.05533355 85.95480093 86 84 C84.83203125 82.02734375 84.83203125 82.02734375 83.8125 79.9375 C83.46832031 79.24527344 83.12414062 78.55304688 82.76953125 77.83984375 C82 76 82 76 82 74 C81.34 74 80.68 74 80 74 C78.99491199 72.21118264 77.99607264 70.41885304 77 68.625 C76.443125 67.62726563 75.88625 66.62953125 75.3125 65.6015625 C74 63 74 63 74 61 C73.34 61 72.68 61 72 61 C71.59007812 60.14535156 71.18015625 59.29070312 70.7578125 58.41015625 C70.21898437 57.30542969 69.68015625 56.20070312 69.125 55.0625 C68.59132813 53.96035156 68.05765625 52.85820312 67.5078125 51.72265625 C66.28340155 48.90595489 66.28340155 48.90595489 64 48 C62.875 45.9375 62.875 45.9375 62 44 C59.525 44.495 59.525 44.495 57 45 C56.88785156 45.55171875 56.77570313 46.1034375 56.66015625 46.671875 C55.88639227 49.40065211 54.73182306 51.72772943 53.4375 54.25 C52.98246094 55.14203125 52.52742188 56.0340625 52.05859375 56.953125 C51.53458984 57.96632813 51.53458984 57.96632813 51 59 C50.34 59 49.68 59 49 59 C48.7525 59.66 48.505 60.32 48.25 61 C46.68182955 64.76360907 44.85494954 68.3711424 43 72 C42.34 72 41.68 72 41 72 C40.731875 72.86625 40.46375 73.7325 40.1875 74.625 C39.02888013 77.91791964 37.61790161 80.91127875 36 84 C35.34 84 34.68 84 34 84 C33.7525 84.66 33.505 85.32 33.25 86 C31.68182955 89.76360907 29.85494954 93.3711424 28 97 C27.34 97 26.68 97 26 97 C25.7525 97.99 25.505 98.98 25.25 100 C23.89078185 104.74280376 22.07383114 109.95331325 18.5078125 113.47265625 C16.7638901 115.23916832 15.87542849 116.9516849 14.8125 119.1875 C14.46832031 119.90292969 14.12414062 120.61835938 13.76953125 121.35546875 C13.51558594 121.89816406 13.26164062 122.44085938 13 123 C12.34 123 11.68 123 11 123 C10.7525 123.66 10.505 124.32 10.25 125 C8.68182955 128.76360907 6.85494954 132.3711424 5 136 C4.34 136 3.68 136 3 136 C2.34 137.98 1.68 139.96 1 142 C0.67 142 0.34 142 0 142 C0 95.14 0 48.28 0 0 Z " fill="#D9D9D9" transform="translate(425,162)"/>
<path d="M0 0 C2.54646835 -0.00135782 5.09293651 -0.00313989 7.6394043 -0.00531006 C13.79487366 -0.00937043 19.95032698 -0.00881238 26.10579652 -0.00589742 C31.11475645 -0.00362501 36.12371297 -0.00333876 41.13267326 -0.00442123 C42.20820653 -0.00465108 42.20820653 -0.00465108 43.30546774 -0.00488558 C44.76275969 -0.00520535 46.22005165 -0.00552956 47.6773436 -0.00585817 C61.29275924 -0.00869918 74.9081681 -0.00544755 88.52358263 -0.0000578 C100.16985925 0.00440994 111.8161259 0.00363186 123.46240234 -0.00097656 C137.03570133 -0.00634511 150.60899441 -0.00842562 164.18229431 -0.0053643 C165.63346636 -0.0050458 167.08463842 -0.00473143 168.53581047 -0.00442123 C169.24954137 -0.00426696 169.96327226 -0.00411268 170.69863136 -0.00395373 C175.69374299 -0.00309548 180.68885083 -0.00453644 185.68396187 -0.00690079 C192.42365121 -0.01002125 199.163319 -0.00775518 205.90300751 -0.00200653 C208.364707 -0.00069321 210.82640808 -0.00104853 213.28810692 -0.0032692 C226.31948902 -0.01393377 239.26974679 0.14164839 252.26733398 1.12939453 C252.26733398 1.78939453 252.26733398 2.44939453 252.26733398 3.12939453 C254.57733398 3.45939453 256.88733398 3.78939453 259.26733398 4.12939453 C259.26733398 10.06939453 259.26733398 16.00939453 259.26733398 22.12939453 C256.95733398 22.45939453 254.64733398 22.78939453 252.26733398 23.12939453 C252.26733398 23.78939453 252.26733398 24.44939453 252.26733398 25.12939453 C237.71942102 26.1555934 223.22193465 26.27201446 208.64233398 26.25878906 C206.10734024 26.26014691 203.57234669 26.26192899 201.03735352 26.26409912 C194.9096226 26.26815942 188.78190781 26.26760144 182.65417671 26.26468648 C177.6671552 26.26241383 172.68013712 26.26212793 167.69311523 26.2632103 C166.6221781 26.26344015 166.6221781 26.26344015 165.52960587 26.26367464 C164.07851664 26.26399441 162.62742742 26.26431863 161.1763382 26.26464723 C147.6185963 26.26748827 134.0608612 26.26423667 120.50312042 26.25884686 C108.90889654 26.25438008 97.31468268 26.2551564 85.72045898 26.25976562 C72.20611405 26.26513578 58.69177505 26.26721371 45.1774292 26.26415336 C43.73213705 26.26383486 42.28684489 26.26352049 40.84155273 26.2632103 C40.13072666 26.26305602 39.41990059 26.26290175 38.68753433 26.2627428 C33.71543483 26.26188495 28.74333914 26.26332462 23.77124023 26.26568985 C17.0602749 26.26881255 10.3493312 26.26654065 3.6383667 26.26079559 C1.18837515 26.25948328 -1.261618 26.25983583 -3.71160889 26.26205826 C-17.08908508 26.27306622 -30.38563513 26.07088408 -43.73266602 25.12939453 C-43.73266602 24.46939453 -43.73266602 23.80939453 -43.73266602 23.12939453 C-44.51641602 23.17064453 -45.30016602 23.21189453 -46.10766602 23.25439453 C-48.73266602 23.12939453 -48.73266602 23.12939453 -50.73266602 21.12939453 C-50.90445653 18.23807276 -50.96496072 15.45497388 -50.92016602 12.56689453 C-50.91952148 11.77347656 -50.91887695 10.98005859 -50.91821289 10.16259766 C-50.87292123 4.26964975 -50.87292123 4.26964975 -49.73266602 3.12939453 C-47.73308238 3.0885867 -45.73221348 3.08685097 -43.73266602 3.12939453 C-43.73266602 2.46939453 -43.73266602 1.80939453 -43.73266602 1.12939453 C-29.14910163 0.09939695 -14.61536947 -0.01319621 0 0 Z " fill="#BCBCBC" transform="translate(98.732666015625,255.87060546875)"/>
<path d="M0 0 C2.00065136 -0.00135778 4.00130248 -0.00313982 6.00195312 -0.00531006 C11.39645931 -0.00983931 16.79094621 -0.00811358 22.1854527 -0.00493097 C27.85279721 -0.00238431 33.52014016 -0.00475127 39.18748474 -0.00631714 C48.70035089 -0.00813198 58.21320925 -0.00575038 67.72607422 -0.00097656 C78.69832119 0.0044663 89.67054958 0.00270045 100.6427961 -0.00280297 C110.09288649 -0.00735178 119.54297131 -0.00797604 128.99306244 -0.0053643 C134.62432563 -0.00381145 140.25558011 -0.00358046 145.88684273 -0.00690079 C151.18190245 -0.00980531 156.47693837 -0.00775667 161.77199554 -0.00200653 C163.70645292 -0.00069279 165.64091233 -0.00104928 167.57536888 -0.0032692 C194.3170693 -0.03111036 194.3170693 -0.03111036 200.79858398 2.12939453 C202.2406634 5.01355336 201.89253285 7.54660982 201.86108398 10.75439453 C201.85206055 11.94291016 201.84303711 13.13142578 201.83374023 14.35595703 C201.81633789 15.72880859 201.81633789 15.72880859 201.79858398 17.12939453 C191.98704925 22.71602221 176.55820567 20.2712069 165.53295898 20.25878906 C163.50142384 20.26014619 161.46988893 20.26192787 159.43835449 20.26409912 C153.95082489 20.26863635 148.46331421 20.26689921 142.9757843 20.26372004 C137.21587068 20.26117721 131.45595861 20.26353932 125.69604492 20.2651062 C116.02579459 20.26692229 106.35555191 20.26453629 96.68530273 20.25976562 C85.52676149 20.25432409 74.36823852 20.25608714 63.20969772 20.26159203 C53.60594909 20.26613912 44.00220594 20.2667659 34.39845657 20.26415336 C28.67273916 20.26259937 22.94703033 20.26237268 17.22131348 20.26568985 C11.83681895 20.26859178 6.45234785 20.26655039 1.06785583 20.26079559 C-0.9008836 20.25948041 -2.86962502 20.25984085 -4.83836365 20.26205826 C-32.46007924 20.29028572 -32.46007924 20.29028572 -37.20141602 17.12939453 C-37.59985352 14.19580078 -37.59985352 14.19580078 -37.57641602 10.69189453 C-37.58415039 9.53818359 -37.59188477 8.38447266 -37.59985352 7.19580078 C-37.20141602 4.12939453 -37.20141602 4.12939453 -36.04682064 2.48020744 C-28.46849768 -3.06702939 -9.25660744 -0.01063478 0 0 Z " fill="#BCBCBC" transform="translate(84.201416015625,214.87060546875)"/>
<path d="M0 0 C1.2816806 -0.00637985 2.56336121 -0.0127597 3.88388062 -0.01933289 C5.28017133 -0.02086175 6.67646255 -0.02197561 8.07275391 -0.02270508 C9.50997958 -0.02592014 10.94720494 -0.02928441 12.38442993 -0.03279114 C15.39545449 -0.03877388 18.40645039 -0.04063193 21.41748047 -0.04003906 C25.26637447 -0.03993751 29.1150837 -0.05358619 32.96393394 -0.07081127 C35.93229 -0.08195713 38.90060176 -0.08395747 41.86897659 -0.08342934 C43.28747825 -0.08460569 44.70598118 -0.08900804 46.12446213 -0.0967617 C48.11289829 -0.10661295 50.10138886 -0.1024061 52.08984375 -0.09765625 C53.21917328 -0.09908127 54.34850281 -0.10050629 55.51205444 -0.10197449 C58.84794544 0.15883868 61.55681859 0.95917078 64.67431641 2.14526367 C64.70124125 4.43686686 64.72067764 6.72855914 64.73681641 9.02026367 C64.74841797 10.29643555 64.76001953 11.57260742 64.77197266 12.88745117 C64.67431641 16.14526367 64.67431641 16.14526367 63.67431641 18.14526367 C59.85640798 19.2366654 56.1546789 19.27188004 52.20336914 19.2746582 C50.91530869 19.27781036 49.62724823 19.28096252 48.30015564 19.28421021 C46.90274013 19.28242039 45.50532493 19.28036943 44.10791016 19.27807617 C42.66732263 19.27875026 41.22673521 19.27972117 39.78614807 19.28097534 C36.77270419 19.28244688 33.75929003 19.28031494 30.74584961 19.27563477 C26.88675038 19.26993267 23.02772062 19.27322296 19.16862392 19.27920723 C16.19606504 19.28282315 13.22352259 19.28166959 10.25096321 19.27907944 C8.82802383 19.27841329 7.40508294 19.27922767 5.98214531 19.28155899 C3.99338688 19.28410294 2.00462321 19.27953705 0.01586914 19.2746582 C-1.11488541 19.27386261 -2.24563995 19.27306702 -3.41065979 19.27224731 C-5.90051266 19.16378488 -7.95544225 18.87232382 -10.32568359 18.14526367 C-10.32568359 17.48526367 -10.32568359 16.82526367 -10.32568359 16.14526367 C-11.31568359 15.81526367 -12.30568359 15.48526367 -13.32568359 15.14526367 C-13.40682465 13.37518653 -13.46493864 11.60404269 -13.51318359 9.83276367 C-13.54798828 8.84663086 -13.58279297 7.86049805 -13.61865234 6.84448242 C-13.32568359 4.14526367 -13.32568359 4.14526367 -12.06396484 2.35229492 C-8.36783916 -0.21422831 -4.3781907 0.01479845 0 0 Z " fill="#BCBCBC" transform="translate(65.32568359375,307.854736328125)"/>
</svg>
